# xmcd CD database file
#
# Track frame offsets:
#	150
#	14203
#	30365
#	46357
#	62535
#	81715
#	100586
#	114844
#	132148
#	147878
#	162954
#	173684
#
# Disc length: 2649 seconds
#
# Revision: 0
# Processed by: cddbd v1.5.2PL0 Copyright (c) Steve Scherf et al.
# Submitted via: CDex 1.70beta2
#
DISCID=960a570c
DTITLE=Franc Marocco - Jazz on the Road (Accordion with band)
DYEAR=2009
DGENRE=Jazz
TTITLE0=Pick Yourself up
TTITLE1=Falling in Love with Love
TTITLE2=They Say it's Wonderful
TTITLE3=Morning
TTITLE4=Embraceable You
TTITLE5=Bluesette
TTITLE6=Fascinating Rythm
TTITLE7=(There Is) no Greater Love
TTITLE8=Tenderly
TTITLE9=On Green Dolphin Street
TTITLE10=The Bad and the Beautiful
TTITLE11=Recado
EXTD=YEAR: 2009
EXTT0=
EXTT1=
EXTT2=
EXTT3=
EXTT4=
EXTT5=
EXTT6=
EXTT7=
EXTT8=
EXTT9=
EXTT10=
EXTT11=
PLAYORDER=
